<svg xmlns="http://www.w3.org/2000/svg" xmlns:xlink="http://www.w3.org/1999/xlink" contentstyletype="text/css" data-diagram-type="CLASS" height="183px" preserveAspectRatio="xMidYMid meet" style="width: 233px; height: 183px; background: rgb(255, 255, 255); overflow: hidden; user-select: none; touch-action: none; cursor: move;" version="1.1" viewBox="0 0 233 183" width="233px" zoomAndPan="magnify" class="diagram wide-svg"><defs/><g style="user-select: none; touch-action: none; transform-origin: 0px 0px 0px; transition: none; transform: scale(1) translate(0px);"><g class="entity" data-entity="Telemetry" data-source-line="2" data-uid="ent0002" id="entity_Telemetry"><rect fill="#F1F1F1" height="162.0781" rx="2.5" ry="2.5" style="stroke:#181818;stroke-width:0.5;" width="212.8193" x="7" y="7"/><ellipse cx="73.4351" cy="23" fill="#ADD1B2" rx="11" ry="11" style="stroke:#181818;stroke-width:1;"/><path d="M76.4038,28.6406 Q75.8257,28.9375 75.1851,29.0781 Q74.5444,29.2344 73.8413,29.2344 Q71.3413,29.2344 70.0132,27.5938 Q68.7007,25.9375 68.7007,22.8125 Q68.7007,19.6875 70.0132,18.0313 Q71.3413,16.375 73.8413,16.375 Q74.5444,16.375 75.1851,16.5313 Q75.8413,16.6875 76.4038,16.9844 L76.4038,19.7031 Q75.7788,19.125 75.1851,18.8594 Q74.5913,18.5781 73.9663,18.5781 Q72.6226,18.5781 71.9351,19.6563 Q71.2476,20.7188 71.2476,22.8125 Q71.2476,24.9063 71.9351,25.9844 Q72.6226,27.0469 73.9663,27.0469 Q74.5913,27.0469 75.1851,26.7813 Q75.7788,26.5 76.4038,25.9219 L76.4038,28.6406 Z " fill="#000000"/><text fill="#000000" font-family="sans-serif" font-size="14" lengthAdjust="spacing" textLength="71.4492" x="93.9351" y="27.8467">Telemetry</text><line style="stroke:#181818;stroke-width:0.5;" x1="8" x2="218.8193" y1="39" y2="39"/><ellipse cx="18" cy="52.6484" fill="none" rx="3" ry="3" style="stroke:#038048;stroke-width:1;"/><text fill="#000000" font-family="sans-serif" font-size="14" lengthAdjust="spacing" textLength="35.4785" x="27" y="55.9951">int id</text><ellipse cx="18" cy="68.9453" fill="none" rx="3" ry="3" style="stroke:#038048;stroke-width:1;"/><text fill="#000000" font-family="sans-serif" font-size="14" lengthAdjust="spacing" textLength="81.7031" x="27" y="72.292">int deviceId</text><ellipse cx="18" cy="85.2422" fill="none" rx="3" ry="3" style="stroke:#038048;stroke-width:1;"/><text fill="#000000" font-family="sans-serif" font-size="14" lengthAdjust="spacing" textLength="106.374" x="27" y="88.5889">json eventData</text><ellipse cx="18" cy="101.5391" fill="none" rx="3" ry="3" style="stroke:#038048;stroke-width:1;"/><text fill="#000000" font-family="sans-serif" font-size="14" lengthAdjust="spacing" textLength="158.5459" x="27" y="104.8857">Timestamp timestamp</text><line style="stroke:#181818;stroke-width:0.5;" x1="8" x2="218.8193" y1="112.1875" y2="112.1875"/><ellipse cx="18" cy="125.8359" fill="#84BE84" rx="3" ry="3" style="stroke:#038048;stroke-width:1;"/><text fill="#000000" font-family="sans-serif" font-size="14" lengthAdjust="spacing" textLength="149.2217" x="27" y="129.1826">void saveTelemetry()</text><ellipse cx="18" cy="142.1328" fill="#84BE84" rx="3" ry="3" style="stroke:#038048;stroke-width:1;"/><text fill="#000000" font-family="sans-serif" font-size="14" lengthAdjust="spacing" textLength="186.8193" x="27" y="145.4795">void updateDeviceStatus()</text><ellipse cx="18" cy="158.4297" fill="#84BE84" rx="3" ry="3" style="stroke:#038048;stroke-width:1;"/><text fill="#000000" font-family="sans-serif" font-size="14" lengthAdjust="spacing" textLength="167.043" x="27" y="161.7764">void publishTelemetry()</text></g></g></svg>